# Blender v2.78 (sub 0) OBJ File: '2.blend'
# www.blender.org
mtllib PUSHILIN_lily_pad.mtl
o lily_pad
v 0.157979 -0.026726 -0.686690
v -0.180575 -0.026726 -0.757932
v -0.471356 -0.026726 -0.612199
v -0.682140 -0.026726 -0.281737
v -0.731994 -0.026726 0.109154
v -0.610697 -0.026727 0.452288
v -0.411007 -0.026727 0.687322
v -0.152442 -0.026727 0.756951
v 0.172320 -0.026727 0.739415
v 0.480259 -0.026726 0.534312
v 0.790517 -0.026726 0.095486
v 0.760159 -0.026726 -0.256721
v 0.523886 -0.026726 -0.483925
v 0.143932 -0.026726 -0.181877
v 0.157979 -0.026726 -0.686690
v 0.157979 0.028971 -0.686690
v -0.180575 -0.026726 -0.757932
v -0.180575 0.017206 -0.757932
v -0.471356 0.037328 -0.612199
v -0.682140 -0.026726 -0.281737
v -0.682140 0.024719 -0.281737
v -0.731994 0.046622 0.109154
v -0.610697 -0.026727 0.452288
v -0.610697 0.017279 0.452288
v -0.411007 0.043411 0.687322
v -0.152442 -0.026727 0.756951
v -0.152442 0.012086 0.756951
v 0.172320 0.043827 0.739415
v 0.480259 -0.026726 0.534312
v 0.480259 0.032664 0.534312
v 0.790517 0.042848 0.095486
v 0.760159 -0.026726 -0.256721
v 0.760159 0.017865 -0.256721
v 0.523886 -0.026726 -0.483925
v 0.523886 0.026496 -0.483925
v 0.143932 -0.026726 -0.181877
v 0.143932 0.045063 -0.181877
v -0.177758 -0.004760 -0.736148
v -0.183392 -0.004760 -0.779717
v -0.492805 0.005301 -0.635985
v -0.452260 0.005301 -0.595327
v 0.121564 0.023023 -0.226314
v 0.166173 0.023023 -0.226378
v 0.179846 0.001122 -0.703935
v 0.136113 0.001122 -0.669445
v 0.193241 0.023023 -0.188485
v 0.763590 0.008061 0.086113
v 0.824093 0.008061 0.104588
v 0.780278 -0.004430 -0.266328
v 0.740039 -0.004430 -0.247114
v 0.525138 -0.000115 -0.510506
v 0.522633 -0.000115 -0.457343
v 0.094703 0.023023 -0.189054
v -0.706327 -0.001004 -0.290492
v -0.657953 -0.001004 -0.272982
v -0.768461 0.009948 0.113051
v -0.703874 0.009948 0.103054
v 0.167416 0.008550 0.711807
v 0.183442 0.008550 0.772892
v 0.500963 0.002969 0.555601
v 0.459556 0.002969 0.513024
v 0.171948 0.023023 -0.140766
v -0.629769 -0.004724 0.463260
v -0.591625 -0.004724 0.441317
v -0.429777 0.008342 0.716945
v -0.395850 0.008342 0.663492
v 0.104682 0.023023 -0.151309
v 0.130725 0.023023 -0.133913
v -0.154468 -0.007320 0.776251
v -0.150417 -0.007320 0.737651
v -0.553392 -0.026124 -0.097161
v -0.548886 -0.025908 -0.075615
v -0.548886 0.010925 -0.075615
v -0.543720 -0.026124 -0.053330
v -0.296886 -0.023824 0.473670
v -0.280036 -0.026727 0.483064
v -0.278092 0.014386 0.482941
v -0.262475 -0.023824 0.495619
v 0.300618 -0.025804 0.500669
v 0.283252 -0.026726 0.504737
v 0.282887 -0.001937 0.504110
v 0.258542 -0.025607 0.508105
v 0.614340 -0.026844 0.052650
v 0.609301 -0.026726 0.066391
v 0.609301 0.009316 0.066391
v 0.600485 -0.025649 0.091219
v -0.278050 -0.026407 -0.502825
v -0.288635 -0.026726 -0.489232
v -0.288635 0.007001 -0.489232
v -0.303836 -0.026407 -0.473107
v -0.118665 0.014852 -0.426135
v -0.121337 0.056431 -0.403261
v -0.121337 -0.026726 -0.403261
v -0.144988 0.014852 -0.392646
v -0.260872 0.017082 -0.166388
v -0.244599 0.060890 -0.149603
v -0.244599 -0.026726 -0.149603
v -0.251047 0.017082 -0.125600
v -0.152418 0.016228 0.207342
v -0.130232 0.059181 0.207119
v -0.130232 -0.026726 0.207119
v -0.122191 0.016228 0.227015
v 0.303896 -0.026726 0.279968
v 0.284811 0.016362 0.294874
v 0.326461 0.016362 0.287729
v 0.303896 0.059451 0.279968
v 0.357262 -0.026726 -0.104570
v 0.357354 0.016229 -0.077837
v 0.374928 0.016229 -0.120981
v 0.357262 0.059184 -0.104570
vt 0.0647 0.4365
vt 0.1735 0.3778
vt 0.1735 0.6623
vt 0.0132 0.5570
vt 0.7205 0.0130
vt 0.7205 0.2795
vt 0.6020 0.2163
vt 0.5581 0.1001
vt 0.5044 0.6944
vt 0.2754 0.5245
vt 0.3693 0.4093
vt 0.5044 0.3447
vt 0.4234 0.0130
vt 0.5002 0.1304
vt 0.5429 0.3295
vt 0.2754 0.3295
vt 0.2602 0.3627
vt 0.1219 0.3600
vt 0.0132 0.3163
vt 0.2602 0.0130
vt 0.7171 0.3447
vt 0.7171 0.7354
vt 0.6201 0.7049
vt 0.5196 0.6331
vt 0.0527 0.9371
vt 0.0491 0.8321
vt 0.0642 0.8286
vt 0.0642 0.9400
vt 0.9732 0.2813
vt 0.9743 0.1644
vt 0.9822 0.1617
vt 0.9822 0.2849
vt 0.8827 0.2237
vt 0.8827 0.3114
vt 0.8715 0.3077
vt 0.8665 0.2233
vt 0.9347 0.1617
vt 0.9347 0.2909
vt 0.9230 0.2874
vt 0.9267 0.1642
vt 0.0871 0.8132
vt 0.0845 0.6948
vt 0.1041 0.6775
vt 0.1041 0.8083
vt 0.8021 0.6876
vt 0.8072 0.5525
vt 0.8197 0.5442
vt 0.8197 0.6934
vt 0.8527 0.1975
vt 0.8518 0.0295
vt 0.8608 0.0130
vt 0.8608 0.2043
vt 0.2282 0.7495
vt 0.2218 0.5831
vt 0.2415 0.5699
vt 0.2415 0.7435
vt 0.8642 0.3437
vt 0.8642 0.5247
vt 0.8561 0.5179
vt 0.8562 0.3266
vt 0.9160 0.6628
vt 0.9178 0.5468
vt 0.9292 0.5442
vt 0.9292 0.6697
vt 0.9729 0.8716
vt 0.9726 0.7500
vt 0.9807 0.7433
vt 0.9807 0.8744
vt 0.9062 0.7433
vt 0.9062 0.8748
vt 0.8930 0.8681
vt 0.8947 0.7459
vt 0.9580 0.1617
vt 0.9580 0.3022
vt 0.9501 0.2995
vt 0.9499 0.1684
vt 0.5202 0.9753
vt 0.5196 0.9019
vt 0.5283 0.8852
vt 0.5283 0.9711
vt 0.0132 0.9360
vt 0.0175 0.8310
vt 0.0289 0.8272
vt 0.0289 0.9368
vt 0.9495 0.8742
vt 0.9475 0.7477
vt 0.9574 0.7433
vt 0.9574 0.8772
vt 0.3538 0.7095
vt 0.3538 0.8321
vt 0.3359 0.8277
vt 0.3421 0.7117
vt 0.8778 0.7433
vt 0.8778 0.8848
vt 0.8698 0.8821
vt 0.8655 0.7482
vt 0.9271 0.1333
vt 0.9261 0.0197
vt 0.9387 0.0130
vt 0.9387 0.1363
vt 0.9806 0.4442
vt 0.9803 0.3296
vt 0.9883 0.3266
vt 0.9883 0.4508
vt 0.9109 0.0130
vt 0.9109 0.1465
vt 0.8993 0.1436
vt 0.8983 0.0197
vt 0.9651 0.3266
vt 0.9651 0.4604
vt 0.9575 0.4538
vt 0.9572 0.3296
vt 0.2301 0.5483
vt 0.2218 0.3943
vt 0.2428 0.3778
vt 0.2428 0.5547
vt 0.8655 0.7119
vt 0.8676 0.5509
vt 0.8752 0.5442
vt 0.8752 0.7281
vt 0.7324 0.7124
vt 0.7411 0.5442
vt 0.7511 0.5525
vt 0.7511 0.7310
vt 0.8409 0.3266
vt 0.8409 0.4950
vt 0.8333 0.5139
vt 0.8310 0.3354
vt 0.9455 0.6794
vt 0.9445 0.5603
vt 0.9544 0.5442
vt 0.9544 0.6751
vt 0.8349 0.6912
vt 0.8369 0.5463
vt 0.8503 0.5442
vt 0.8503 0.6927
vt 0.8983 0.3080
vt 0.8983 0.1632
vt 0.9078 0.1617
vt 0.9078 0.3102
vt 0.3809 0.7095
vt 0.3809 0.8626
vt 0.3690 0.8603
vt 0.3713 0.7123
vt 0.2879 0.7095
vt 0.2879 0.8626
vt 0.2779 0.8596
vt 0.2754 0.7116
vt 0.1599 0.8160
vt 0.1561 0.6808
vt 0.1735 0.6775
vt 0.1735 0.8174
vt 0.6732 0.8962
vt 0.6739 0.7527
vt 0.6835 0.7505
vt 0.6835 0.8998
vt 0.5044 0.7095
vt 0.5044 0.8266
vt 0.4915 0.8284
vt 0.4862 0.7168
vt 0.8501 0.7085
vt 0.8501 0.8632
vt 0.8366 0.8597
vt 0.8405 0.7104
vt 0.7704 0.8550
vt 0.7707 0.7404
vt 0.7869 0.7309
vt 0.7869 0.8542
vt 0.6140 0.8776
vt 0.6161 0.7505
vt 0.6272 0.7522
vt 0.6272 0.8849
vt 0.5873 0.8851
vt 0.5854 0.7580
vt 0.5988 0.7505
vt 0.5988 0.8832
vt 0.1377 0.6775
vt 0.1377 0.8148
vt 0.1193 0.8103
vt 0.1220 0.6784
vt 0.4090 0.7095
vt 0.4090 0.8553
vt 0.3979 0.8534
vt 0.3961 0.7132
vt 0.1906 0.8048
vt 0.1887 0.6064
vt 0.2017 0.6030
vt 0.2017 0.8065
vt 0.7697 0.2128
vt 0.7715 0.0144
vt 0.7831 0.0130
vt 0.7831 0.2165
vt 0.2065 0.3778
vt 0.2065 0.5878
vt 0.1909 0.5858
vt 0.1887 0.3824
vt 0.8107 0.0130
vt 0.8107 0.2232
vt 0.7983 0.2186
vt 0.7996 0.0149
vt 0.7724 0.3278
vt 0.7695 0.2549
vt 0.7909 0.2407
vt 0.7909 0.3251
vt 0.8831 0.0130
vt 0.8831 0.1855
vt 0.8783 0.2038
vt 0.8760 0.0186
vt 0.3031 0.8338
vt 0.3090 0.7106
vt 0.3207 0.7095
vt 0.3207 0.8346
vt 0.9241 0.8797
vt 0.9215 0.7446
vt 0.9323 0.7433
vt 0.9323 0.8812
vt 0.8214 0.7085
vt 0.8214 0.8368
vt 0.8021 0.8332
vt 0.8096 0.7095
vt 0.4376 0.7095
vt 0.4376 0.8522
vt 0.4294 0.8510
vt 0.4242 0.7132
vt 0.2299 0.8785
vt 0.2247 0.7678
vt 0.2415 0.7647
vt 0.2415 0.8802
vt 0.8021 0.9656
vt 0.8042 0.8534
vt 0.8124 0.8519
vt 0.8124 0.9688
vt 0.4710 0.7095
vt 0.4710 0.8297
vt 0.4592 0.8288
vt 0.4528 0.7143
vt 0.9420 0.3266
vt 0.9420 0.4490
vt 0.9294 0.4446
vt 0.9337 0.3278
vt 0.7383 0.1983
vt 0.7357 0.0312
vt 0.7545 0.0130
vt 0.7545 0.1931
vt 0.8919 0.6951
vt 0.8904 0.5600
vt 0.9008 0.5442
vt 0.9008 0.6919
vt 0.8862 0.3266
vt 0.8862 0.4936
vt 0.8799 0.5113
vt 0.8794 0.3310
vt 0.4862 0.9365
vt 0.4927 0.8450
vt 0.5030 0.8436
vt 0.5030 0.9397
vt 0.3720 0.9781
vt 0.3690 0.8810
vt 0.3793 0.8778
vt 0.3793 0.9793
vt 0.2068 0.8216
vt 0.2068 0.9251
vt 0.1887 0.9199
vt 0.1963 0.8220
vt 0.3156 0.8497
vt 0.3156 0.9564
vt 0.3082 0.9557
vt 0.3031 0.8543
vt 0.0911 0.9315
vt 0.0845 0.8283
vt 0.1014 0.8283
vt 0.1014 0.9325
vt 0.9539 0.1349
vt 0.9572 0.0141
vt 0.9645 0.0130
vt 0.9645 0.1362
vt 0.5702 0.7505
vt 0.5702 0.8642
vt 0.5598 0.8636
vt 0.5518 0.7543
vt 0.9142 0.3266
vt 0.9142 0.4546
vt 0.9014 0.4506
vt 0.9069 0.3274
vt 0.7695 0.7158
vt 0.7663 0.5611
vt 0.7869 0.5442
vt 0.7869 0.7104
vt 0.1377 0.8299
vt 0.1377 0.9307
vt 0.1314 0.9277
vt 0.1200 0.8314
vt 0.3359 0.9396
vt 0.3376 0.8495
vt 0.3526 0.8473
vt 0.3526 0.9419
vt 0.5196 0.8646
vt 0.5311 0.7505
vt 0.5366 0.7512
vt 0.5366 0.8700
vt 0.6424 0.8649
vt 0.6436 0.7505
vt 0.6580 0.7541
vt 0.6580 0.8723
vt 0.8370 0.9499
vt 0.8433 0.8784
vt 0.8501 0.8876
vt 0.8501 0.9632
vt 0.5981 0.3084
vt 0.5900 0.3026
vt 0.5857 0.2993
vt 0.5981 0.2947
vt 0.2695 0.9540
vt 0.2837 0.8816
vt 0.2879 0.8778
vt 0.2879 0.9571
vt 0.4339 0.8732
vt 0.4339 0.9854
vt 0.4242 0.9828
vt 0.4255 0.8674
vt 0.6699 0.2947
vt 0.6716 0.3016
vt 0.6729 0.3071
vt 0.6663 0.3071
vt 0.6256 0.2947
vt 0.6256 0.3076
vt 0.6133 0.3041
vt 0.6184 0.2988
vt 0.7357 0.3278
vt 0.7374 0.2155
vt 0.7404 0.2135
vt 0.7543 0.3278
vt 0.7324 0.9453
vt 0.7438 0.8792
vt 0.7493 0.8810
vt 0.7493 0.9519
vt 0.9475 0.9606
vt 0.9493 0.8936
vt 0.9557 0.8924
vt 0.9557 0.9636
vt 0.9696 0.6626
vt 0.9698 0.5442
vt 0.9771 0.5490
vt 0.9771 0.6799
vt 0.0132 0.7964
vt 0.0162 0.6775
vt 0.0338 0.6815
vt 0.0338 0.8121
vt 0.9011 0.8900
vt 0.9011 0.9574
vt 0.8934 0.9636
vt 0.8930 0.8923
vt 0.5658 0.8803
vt 0.5695 0.9490
vt 0.5518 0.9490
vt 0.5619 0.8794
vt 0.1638 0.9230
vt 0.1561 0.8344
vt 0.1729 0.8325
vt 0.1729 0.9319
vt 0.0491 0.7960
vt 0.0516 0.6775
vt 0.0693 0.6834
vt 0.0693 0.8135
vt 0.7704 0.9889
vt 0.7708 0.8747
vt 0.7791 0.8701
vt 0.7791 0.9888
vt 0.4710 0.8449
vt 0.4710 0.9418
vt 0.4548 0.9385
vt 0.4643 0.8474
vt 0.7832 0.3619
vt 0.7832 0.5291
vt 0.7668 0.5236
vt 0.7750 0.3436
vt 0.7324 0.5116
vt 0.7342 0.3447
vt 0.7516 0.3489
vt 0.7516 0.5291
vt 0.9814 0.1331
vt 0.9797 0.0185
vt 0.9890 0.0130
vt 0.9890 0.1316
vt 0.7139 0.8691
vt 0.6987 0.7558
vt 0.7148 0.7505
vt 0.7148 0.8680
vt 0.7984 0.5011
vt 0.7988 0.3436
vt 0.8158 0.3463
vt 0.8158 0.5139
vt 0.8259 0.1856
vt 0.8279 0.0130
vt 0.8366 0.0159
vt 0.8366 0.2011
vt 0.6479 0.9513
vt 0.6424 0.8994
vt 0.6562 0.8875
vt 0.6562 0.9524
vt 0.8083 0.3241
vt 0.8061 0.2429
vt 0.8149 0.2407
vt 0.8149 0.3260
vt 0.8310 0.2940
vt 0.8334 0.2234
vt 0.8513 0.2284
vt 0.8513 0.3114
vt 0.6987 0.9584
vt 0.7002 0.8843
vt 0.7097 0.8877
vt 0.7097 0.9737
vt 0.7434 0.8641
vt 0.7324 0.7518
vt 0.7501 0.7461
vt 0.7501 0.8615
vt 0.4010 0.9847
vt 0.4015 0.8724
vt 0.4090 0.8705
vt 0.4090 0.9859
vt 0.6511 0.2947
vt 0.6511 0.3096
vt 0.6408 0.2984
vt 0.6459 0.2966
vt 0.5705 0.2947
vt 0.5705 0.3099
vt 0.5581 0.3029
vt 0.5635 0.2992
vn -0.0000 1.0000 0.0000
vn 0.3404 -0.6348 0.6937
vn 0.3758 0.6354 0.6745
vn -0.3234 -0.6910 -0.6465
vn -0.2860 0.6898 -0.6650
vn 0.5929 -0.3910 -0.7040
vn -0.8665 -0.4990 -0.0146
vn -0.7338 0.6775 -0.0493
vn 0.8807 -0.4724 0.0354
vn 0.7463 0.6656 -0.0047
vn -0.1525 -0.6450 0.7488
vn -0.1743 0.6477 0.7416
vn 0.1617 -0.6462 -0.7458
vn 0.1414 0.6435 -0.7523
vn 0.2758 0.5607 -0.7807
vn -0.7695 -0.6345 0.0721
vn -0.7714 0.6359 0.0259
vn 0.7267 -0.6841 -0.0627
vn 0.7235 0.6816 -0.1095
vn -0.5360 -0.6409 0.5496
vn -0.5221 0.6429 0.5605
vn 0.5278 -0.6421 -0.5561
vn 0.5405 0.6402 -0.5459
vn 0.5290 -0.5103 0.6780
vn 0.4764 0.6928 0.5413
vn -0.5586 -0.4665 -0.6858
vn -0.4397 0.6668 -0.6017
vn -0.5065 0.6130 0.6064
vn 0.6387 -0.6567 0.4011
vn 0.6274 0.6562 0.4193
vn -0.6052 -0.6960 -0.3864
vn -0.6174 0.6953 -0.3681
vn 0.7600 -0.6415 0.1041
vn 0.7632 0.6426 0.0678
vn -0.7106 -0.6978 -0.0905
vn -0.7061 0.6964 -0.1283
vn -0.0681 -0.2920 -0.9540
vn -0.4309 -0.6449 -0.6313
vn -0.4138 0.6459 -0.6416
vn 0.3968 -0.6974 0.5968
vn 0.4142 0.6966 0.5858
vn -0.6112 -0.6595 -0.4376
vn -0.6183 0.6598 -0.4271
vn 0.5897 -0.6924 0.4158
vn 0.5828 0.6916 0.4267
vn -0.2940 -0.5048 0.8116
vn 0.8493 0.4317 -0.3037
vn 0.7145 -0.6500 -0.2589
vn 0.7315 0.6491 -0.2088
vn -0.6745 -0.6988 0.2381
vn -0.6571 0.6956 0.2905
vn 0.5850 -0.6481 -0.4875
vn 0.5464 0.6499 -0.5283
vn -0.5475 -0.6948 0.4664
vn -0.5862 0.6903 0.4240
vn -0.7689 -0.3271 -0.5493
vn 0.0697 0.6074 0.7913
vn 0.7246 0.4693 0.5047
vn 0.1909 -0.6456 -0.7394
vn 0.2641 0.6485 -0.7139
vn -0.1880 -0.6950 0.6940
vn -0.1128 0.6874 0.7175
vn -0.0350 -0.6518 -0.7576
vn -0.0990 0.6509 -0.7527
vn 0.0393 -0.6973 0.7157
vn -0.0270 0.6919 0.7215
vn -0.8271 -0.4827 0.2880
vn 0.2151 -0.7080 0.6727
vn -0.2746 0.4686 -0.8396
vn 0.7056 -0.6273 0.3297
vn -0.8130 0.4515 -0.3677
vn -0.8322 0.5529 0.0407
vn 0.9411 0.0000 0.3381
vn 0.7400 -0.6725 0.0138
vn -0.4086 0.5350 0.7394
vn 0.1741 0.0275 0.9843
vn -0.5375 0.0279 0.8428
vn 0.3920 -0.6593 -0.6415
vn -0.2630 -0.6804 0.6840
vn 0.2904 0.4595 -0.8394
vn 0.5480 0.5220 -0.6537
vn -0.5624 -0.4743 0.6773
vn -0.4993 0.5088 0.7013
vn 0.3967 -0.6709 -0.6265
vn -0.0624 0.3955 -0.9163
vn 0.0721 -0.4760 0.8765
vn 0.1343 0.4907 0.8609
vn -0.1229 -0.6877 -0.7155
vn -0.7293 0.4418 -0.5225
vn 0.7679 -0.3500 0.5365
vn 0.7750 0.4166 0.4751
vn -0.6556 -0.6386 -0.4029
vn 0.8928 -0.3192 -0.3177
vn -0.7439 0.6169 0.2570
vn -0.7320 -0.6663 -0.1422
vn 0.8315 0.5140 0.2109
vn 0.3041 -0.4307 -0.8497
vn -0.2657 0.6388 0.7220
vn -0.4330 -0.7203 0.5419
vn 0.5714 0.4303 -0.6988
vn -0.9765 0.0000 0.2155
vn -0.7553 0.0000 -0.6554
usemtl None
s off
f 2/1/1 3/2/1 14/3/1 1/4/1
f 14/5/1 11/6/1 12/7/1 13/8/1
f 14/9/1 3/10/1 4/11/1 5/12/1
f 9/13/1 10/14/1 11/15/1 14/16/1
f 5/17/1 6/18/1 7/19/1 14/20/1
f 14/21/1 7/22/1 8/23/1 9/24/1
f 38/25/2 41/26/2 3/27/2 17/28/2
f 41/29/3 38/30/3 18/31/3 19/32/3
f 40/33/4 39/34/4 17/35/4 3/36/4
f 39/37/5 40/38/5 19/39/5 18/40/5
f 91/41/6 42/42/6 36/43/6 93/44/6
f 42/45/7 45/46/7 15/47/7 36/48/7
f 45/49/8 42/50/8 37/51/8 16/52/8
f 44/53/9 43/54/9 36/55/9 15/56/9
f 43/57/10 44/58/10 16/59/10 37/60/10
f 45/61/11 38/62/11 17/63/11 15/64/11
f 38/65/12 45/66/12 16/67/12 18/68/12
f 39/69/13 44/70/13 15/71/13 17/72/13
f 44/73/14 39/74/14 18/75/14 16/76/14
f 109/77/15 46/78/15 37/79/15 110/80/15
f 47/81/16 50/82/16 32/83/16 11/84/16
f 50/85/17 47/86/17 31/87/17 33/88/17
f 49/89/18 48/90/18 11/91/18 32/92/18
f 48/93/19 49/94/19 33/95/19 31/96/19
f 50/97/20 52/98/20 34/99/20 32/100/20
f 52/101/21 50/102/21 33/103/21 35/104/21
f 51/105/22 49/106/22 32/107/22 34/108/22
f 49/109/23 51/110/23 35/111/23 33/112/23
f 52/113/24 46/114/24 36/115/24 34/116/24
f 46/117/25 52/118/25 35/119/25 37/120/25
f 43/121/26 51/122/26 34/123/26 36/124/26
f 51/125/27 43/126/27 37/127/27 35/128/27
f 94/129/28 53/130/28 37/131/28 92/132/28
f 41/133/29 55/134/29 20/135/29 3/136/29
f 55/137/30 41/138/30 19/139/30 21/140/30
f 54/141/31 40/142/31 3/143/31 20/144/31
f 40/145/32 54/146/32 21/147/32 19/148/32
f 55/149/33 57/150/33 5/151/33 20/152/33
f 57/153/34 55/154/34 21/155/34 22/156/34
f 56/157/35 54/158/35 20/159/35 5/160/35
f 54/161/36 56/162/36 22/163/36 21/164/36
f 95/165/37 53/166/37 36/167/37 97/168/37
f 58/169/38 61/170/38 29/171/38 9/172/38
f 61/173/39 58/174/39 28/175/39 30/176/39
f 60/177/40 59/178/40 9/179/40 29/180/40
f 59/181/41 60/182/41 30/183/41 28/184/41
f 61/185/42 47/186/42 11/187/42 29/188/42
f 47/189/43 61/190/43 30/191/43 31/192/43
f 48/193/44 60/194/44 29/195/44 11/196/44
f 60/197/45 48/198/45 31/199/45 30/200/45
f 108/201/46 62/202/46 36/203/46 107/204/46
f 105/205/47 62/206/47 37/207/47 106/208/47
f 57/209/48 64/210/48 23/211/48 5/212/48
f 64/213/49 57/214/49 22/215/49 24/216/49
f 63/217/50 56/218/50 5/219/50 23/220/50
f 56/221/51 63/222/51 24/223/51 22/224/51
f 64/225/52 66/226/52 7/227/52 23/228/52
f 66/229/53 64/230/53 24/231/53 25/232/53
f 65/233/54 63/234/54 23/235/54 7/236/54
f 63/237/55 65/238/55 25/239/55 24/240/55
f 99/241/56 67/242/56 36/243/56 101/244/56
f 98/245/57 67/246/57 37/247/57 96/248/57
f 102/249/58 68/250/58 37/251/58 100/252/58
f 66/253/59 70/254/59 26/255/59 7/256/59
f 70/257/60 66/258/60 25/259/60 27/260/60
f 69/261/61 65/262/61 7/263/61 26/264/61
f 65/265/62 69/266/62 27/267/62 25/268/62
f 70/269/63 58/270/63 9/271/63 26/272/63
f 58/273/64 70/274/64 27/275/64 28/276/64
f 59/277/65 69/278/65 26/279/65 9/280/65
f 69/281/66 59/282/66 28/283/66 27/284/66
f 104/285/67 68/286/67 36/287/67 103/288/67
f 98/289/68 74/290/68 72/291/68 97/292/68
f 95/293/69 71/294/69 73/295/69 96/296/69
f 102/297/70 78/298/70 76/299/70 101/300/70
f 99/301/71 75/302/71 77/303/71 100/304/71
f 104/305/72 82/306/72 81/307/72 106/308/72
f 86/309/73 84/310/73 83/311/73 85/312/73
f 105/313/74 79/314/74 80/315/74 103/316/74
f 108/317/75 86/318/75 85/319/75 110/320/75
f 82/321/76 80/322/76 79/323/76 81/324/76
f 78/325/77 77/326/77 75/327/77 76/328/77
f 109/329/78 83/330/78 84/331/78 107/332/78
f 94/333/79 90/334/79 88/335/79 93/336/79
f 91/337/80 87/338/80 89/339/80 92/340/80
f 42/341/81 91/342/81 92/343/81 37/344/81
f 53/345/82 94/346/82 93/347/82 36/348/82
f 90/349/83 94/350/83 92/351/83 89/352/83
f 87/353/84 91/354/84 93/355/84 88/356/84
f 53/357/85 95/358/85 96/359/85 37/360/85
f 67/361/86 98/362/86 97/363/86 36/364/86
f 74/365/87 98/366/87 96/367/87 73/368/87
f 71/369/88 95/370/88 97/371/88 72/372/88
f 67/373/89 99/374/89 100/375/89 37/376/89
f 68/377/90 102/378/90 101/379/90 36/380/90
f 78/381/91 102/382/91 100/383/91 77/384/91
f 75/385/92 99/386/92 101/387/92 76/388/92
f 62/389/93 105/390/93 103/391/93 36/392/93
f 68/393/94 104/394/94 106/395/94 37/396/94
f 82/397/95 104/398/95 103/399/95 80/400/95
f 79/401/96 105/402/96 106/403/96 81/404/96
f 46/405/97 109/406/97 107/407/97 36/408/97
f 62/409/98 108/410/98 110/411/98 37/412/98
f 86/413/99 108/414/99 107/415/99 84/416/99
f 83/417/100 109/418/100 110/419/100 85/420/100
f 74/421/101 73/422/101 71/423/101 72/424/101
f 90/425/102 89/426/102 87/427/102 88/428/102
